# AST/ASF file generated using VICON BodyLanguage
# -----------------------------------------------
:version 1.10
:name VICON
:units
  mass 1.0
  length 0.45
  angle deg
:documentation
   .ast/.asf automatically generated from VICON data using
   VICON BodyBuilder and BodyLanguage model FoxedUp or BRILLIANT.MOD
:root
   order TX TY TZ RX RY RZ
   axis XYZ
   position 0 0 0  
   orientation 0 0 0 
:bonedata
  begin
     id 1 
     name lhipjoint
     direction 0.650112 -0.723553 0.232005 
     length 2.45805 
     axis 0 0 0  XYZ
  end
  begin
     id 2 
     name lfemur
     direction 0.34202 -0.939693 0  
     length 7.00073  
     axis 0 0 20  XYZ
    dof rx ry rz
    limits (-160.0 20.0)
           (-70.0 70.0)
           (-60.0 70.0)
  end
  begin
     id 3 
     name ltibia
     direction 0.34202 -0.939693 0   
     length 7.8748   
     axis 0 0 20   XYZ
    dof rx
    limits (-10.0 170.0)
  end
  begin
     id 4 
     name lfoot
     direction 0.0542825 -0.14914 0.987325   
     length 1.75978   
     axis -90 7.62852e-016 20   XYZ
    dof rx rz
    limits (-45.0 90.0)
           (-70.0 20.0)
  end
  begin
     id 5 
     name ltoes
     direction 1.53509e-011 -4.21906e-011 1   
     length 0.893912   
     axis -90 7.62852e-016 20   XYZ
    dof rx
    limits (-90.0 20.0)
  end
  begin
     id 6 
     name rhipjoint
     direction -0.637897 -0.733345 0.235145   
     length 2.42522  
     axis 0 0 0  XYZ 
  end
  begin
     id 7 
     name rfemur
     direction -0.34202 -0.939693 0   
     length 7.02549   
     axis 0 0 -20   XYZ
    dof rx ry rz
    limits (-160.0 20.0)
           (-70.0 70.0)
           (-70.0 60.0)
  end
  begin
     id 8 
     name rtibia
     direction -0.34202 -0.939693 0   
     length 7.71512   
     axis 0 0 -20   XYZ
    dof rx
    limits (-10.0 170.0)
 end
 begin
     id 9 
     name rfoot
     direction -0.0822618 -0.226012 0.970645   
     length 1.90014  
     axis -90 -7.62852e-016 -20   XYZ
    dof rx rz
    limits (-45.0 90.0)
           (-20.0 70.0)
  end
  begin
     id 10 
     name rtoes
     direction -1.53542e-011 -4.21872e-011 1   
     length 0.957341   
     axis -90 -7.62852e-016 -20   XYZ
    dof rx
    limits (-90.0 20.0)
  end
  begin
     id 11 
     name lowerback
     direction -0.0022947 0.999774 -0.0211557   
     length 1.89909   
     axis 0 0 0   XYZ
    dof rx ry rz
    limits (-20.0 45.0)
           (-30.0 30.0)
           (-30.0 30.0)
  end
  begin
     id 12 
     name upperback
     direction 0.0107737 0.998635 0.0511027   
     length 1.8853   
     axis 0 0 0   XYZ
    dof rx ry rz
    limits (-20.0 45.0)
           (-30.0 30.0)
           (-30.0 30.0)
  end
  begin
     id 13 
     name thorax
     direction 0.011824 0.998136 0.0598754   
     length 1.88911   
     axis 0 0 0   XYZ
    dof rx ry rz
    limits (-20.0 45.0)
           (-30.0 30.0)
           (-30.0 30.0)
  end
  begin
     id 14 
     name lowerneck
     direction -0.0685355 0.990319 0.120714   
     length 1.91222   
     axis 0 0 0   XYZ
    dof rx ry rz
    limits (-20.0 45.0)
           (-30.0 30.0)
           (-30.0 30.0)
  end
  begin
     id 15 
     name upperneck
     direction 0.0886204 0.955665 -0.280805   
     length 1.92526   
     axis 0 0 0   XYZ
    dof rx ry rz
    limits (-20.0 45.0)
           (-30.0 30.0)
           (-30.0 30.0)
  end
  begin
     id 16
     name head
     direction 0.0233423 0.993502 -0.111393  
     length 1.96056  
     axis 0 0 0   XYZ
    dof rx ry rz
    limits (-20.0 45.0)
           (-30.0 30.0)
           (-30.0 30.0)
  end
  begin
     id 17 
     name lclavicle
     direction 0.941873 0.32922 0.0670041  
     length 3.31705  
     axis 0 0 0   XYZ
    dof ry rz
    limits (-20.0 10.0)
           (0.0 20.0)
  end
  begin
     id 18 
     name lhumerus
     direction 1 -4.4898e-011 3.38707e-028   
     length 5.29277   
     axis 180 -30 -90   XYZ
    dof rx ry rz
    limits (-60.0 90.0)
           (-90.0 90.0)
           (-90.0 90.0)
  end
  begin
     id 19
     name lradius
     direction 1 -4.48952e-011 1.63213e-028   
     length 2.85226   
     axis 180 -30 -90   XYZ
    dof rx
    limits (-10.0 170.0)
  end
  begin
     id 20
     name lwrist
     direction 1 -4.49001e-011 1.27856e-027   
     length 1.42613   
     axis -1.61767e-015 90 90   XYZ
    dof ry
    limits (-180.0 0.0)
 end
  begin
     id 21 
     name lhand
     direction 1 -4.48976e-011 2.55931e-027   
     length 0.602097   
     axis -1.63363e-015 90 90   XYZ
    dof rx rz
    limits (-90.0 90.0)
           (-45.0 45.0)
  end
  begin
     id 22 
     name lfingers
     direction 1 -4.48986e-011 5.11684e-027   
     length 0.485426   
     axis -3.26723e-015 90 90   XYZ
    dof rx
    limits (0.0 90.0)
  end
  begin
     id 23
     name lthumb
     direction 0.707107 -6.34915e-011 0.707107   
     length 0.696978   
     axis -90 45 -2.25915e-014   XYZ
    dof rx rz
    limits (-45.0 45.0)
           (-45.0 45.0)
  end
  begin
     id 24 
     name rclavicle
     direction -0.939974 0.327078 0.0973096   
     length 3.10337  
     axis 0 0 0   XYZ 
    dof ry rz
    limits (-10.0 20.0)
           (-20.0 0.0)
  end
  begin
     id 25 
     name rhumerus
     direction -1 -4.48975e-011 1.83745e-027  
     length 5.13304   
     axis 180 30 90   XYZ
    dof rx ry rz
    limits (-90.0 60.0)
           (-90.0 90.0)
           (-90.0 90.0)
  end
  begin
     id 26 
     name rradius
     direction -1 -4.48977e-011 7.1775e-029   
     length 2.74305   
     axis 180 30 90   XYZ
    dof rx
    limits (-10.0 170.0)
  end
  begin
     id 27 
     name rwrist
     direction -1 -4.48977e-011 1.27963e-027   
     length 1.37152   
     axis -1.61767e-015 -90 -90   XYZ
    dof ry
    limits (-180.0 0.0)
  end
  begin
     id 28
     name rhand
     direction -1 -4.4888e-011 2.56782e-027   
     length 0.767976   
     axis -1.63363e-015 -90 -90   XYZ
    dof rx rz
    limits (-90.0 90.0)
           (-45.0 45.0)
  end
  begin
     id 29
     name rfingers
     direction -1 -4.48947e-011 5.12384e-027   
     length 0.619162   
     axis -3.26723e-015 -90 -90   XYZ
    dof rx
    limits (0.0 90.0)
  end
  begin
     id 30
     name rthumb
     direction -0.707107 -6.34857e-011 0.707107   
     length 0.888997   
     axis -90 -45 2.25915e-014   XYZ
    dof rx rz
    limits (-45.0 45.0)
           (-45.0 45.0)
  end
:hierarchy
  begin
    root lhipjoint rhipjoint lowerback
    lhipjoint lfemur
    lfemur ltibia
    ltibia lfoot
    lfoot ltoes
    rhipjoint rfemur
    rfemur rtibia
    rtibia rfoot
    rfoot rtoes
    lowerback upperback
    upperback thorax
    thorax lowerneck lclavicle rclavicle
    lowerneck upperneck
    upperneck head
    lclavicle lhumerus
    lhumerus lradius
    lradius lwrist
    lwrist lhand lthumb
    lhand lfingers
    rclavicle rhumerus
    rhumerus rradius
    rradius rwrist
    rwrist rhand rthumb
    rhand rfingers
  end

#!OML:ASF F:\VICON\USERDATA\INSTALL\rory3\rory3.ASF
:FULLY-SPECIFIED
:DEGREES
131
root 0.169854 17.2817 -0.926294 8.04105 1.06479 -0.157239
lowerback 5.60379 0.624008 1.38235
upperback 0.236183 0.975852 1.87075
thorax -2.90873 0.478892 1.07246
lowerneck -10.2412 -13.6053 -15.3946
upperneck 3.14938 -17.973 19.9403
head 5.94617 -8.24683 6.86882
rclavicle -9.93923e-015 -1.59028e-015
rhumerus -33.6053 17.8167 -87.4724
rradius 78.126
rwrist 14.0067
rhand -9.38384 18.4675
rfingers 7.12502
rthumb 16.5769 -10.8445
lclavicle -9.93923e-015 -1.59028e-015
lhumerus -25.7115 1.59045 77.3757
lradius 79.0567
lwrist 9.24297
lhand -12.7213 26.5588
lfingers 7.12502
lthumb 13.3619 56.1103
rfemur -15.8452 8.95752 17.7912
rtibia 23.9501
rfoot -14.1049 -13.2182
rtoes -12.2441
lfemur -18.7669 -11.0429 -16.8932
ltibia 26.5286
lfoot -15.583 4.4362
ltoes -13.6589
132
root 0.176521 17.2659 -0.948083 8.26904 0.798964 -0.0486129
lowerback 5.86397 0.63099 1.37034
upperback 0.335504 0.988919 1.87916
thorax -2.95261 0.485405 1.08453
lowerneck -10.0803 -13.4749 -15.2775
upperneck 2.19485 -17.7147 20.2419
head 5.60852 -8.1488 7.01037
rclavicle 7.7526e-015 -1.90833e-014
rhumerus -33.7154 17.2542 -87.5955
rradius 76.1468
rwrist 15.3178
rhand -8.43273 18.9793
rfingers 7.12502
rthumb 17.4924 -10.2537
lclavicle 7.7526e-015 -1.90833e-014
lhumerus -25.6047 0.0363326 78.5516
lradius 75.1102
lwrist 8.34949
lhand -10.9327 26.16
lfingers 7.12502
lthumb 15.0853 55.5903
rfemur -16.684 8.86096 17.5727
rtibia 24.8037
rfoot -14.3614 -12.9681
rtoes -12.8165
lfemur -19.3719 -10.5989 -17.0304
ltibia 27.1354
lfoot -15.7623 4.18436
ltoes -13.1777
133
root 0.184089 17.2527 -0.971036 8.51392 0.591646 -0.00855394
lowerback 5.99174 0.583951 1.42325
upperback 0.504173 0.930969 1.94905
thorax -2.84999 0.456649 1.13117
lowerneck -9.96521 -13.3048 -15.1936
upperneck 1.24378 -17.3846 20.5038
head 5.2675 -8.01671 7.15347
rclavicle -7.55382e-015 -4.77083e-015
rhumerus -33.7131 16.9539 -87.6455
rradius 74.4172
rwrist 16.6156
rhand -7.60006 18.8723
rfingers 7.12502
rthumb 18.2936 -10.2875
lclavicle -7.55382e-015 -4.77083e-015
lhumerus -25.2555 -1.32022 79.832
lradius 71.0867
lwrist 7.7599
lhand -10.0481 25.914
lfingers 7.12502
lthumb 15.9374 55.2782
rfemur -17.4993 8.77146 17.4244
rtibia 25.5798
rfoot -14.6031 -12.7273
rtoes -12.8704
lfemur -20.0136 -10.2682 -17.0814
ltibia 27.7199
lfoot -15.8985 4.06536
ltoes -12.9162
134
root 0.19505 17.2384 -0.995212 8.81098 0.503598 -0.0377498
lowerback 6.0344 0.506754 1.58131
upperback 0.641178 0.839894 2.07343
thorax -2.73135 0.410597 1.17846
lowerneck -9.85935 -13.1634 -15.1862
upperneck 0.407019 -17.0928 20.6974
head 4.96954 -7.90243 7.27793
rclavicle 1.35174e-014 8.74653e-015
rhumerus -33.7271 16.8222 -87.6545
rradius 72.7195
rwrist 18.0344
rhand -6.70441 18.6142
rfingers 7.12502
rthumb 19.1551 -10.4625
lclavicle 1.35174e-014 8.74653e-015
lhumerus -24.8313 -2.7611 81.2737
lradius 66.9524
lwrist 7.47075
lhand -10.7274 25.6237
lfingers 7.12502
lthumb 15.2831 55.0391
rfemur -18.331 8.5386 17.3575
rtibia 26.2872
rfoot -14.8074 -12.4697
rtoes -12.8867
lfemur -20.7329 -9.96445 -17.0489
ltibia 28.2787
lfoot -15.9908 3.84336
ltoes -12.81
135
root 0.202151 17.2228 -1.02039 9.1437 0.411905 -0.0406396
lowerback 6.11721 0.428129 1.63057
upperback 0.70857 0.74273 2.19709
thorax -2.70836 0.362399 1.28607
lowerneck -9.78647 -13.0201 -15.1208
upperneck -0.285512 -16.8138 20.7903
head 4.70698 -7.79087 7.3558
rclavicle -6.75868e-015 -1.90833e-014
rhumerus -33.6506 16.7131 -87.6608
rradius 70.8673
rwrist 19.3902
rhand -5.78634 18.6844
rfingers 7.12502
rthumb 20.0377 -10.3024
lclavicle -6.75868e-015 -1.90833e-014
lhumerus -24.3333 -4.25611 82.6531
lradius 62.6928
lwrist 6.81349
lhand -11.2915 25.7786
lfingers 7.12502
lthumb 14.7396 55.2346
rfemur -19.1991 8.34208 17.2695
rtibia 26.9582
rfoot -14.9907 -12.2581
rtoes -13.2023
lfemur -21.4878 -9.59776 -17.032
ltibia 28.8082
lfoot -16.0169 3.62793
ltoes -13.0605
136
root 0.207297 17.2086 -1.04358 9.37463 0.293519 0.112023
lowerback 6.31096 0.335111 1.49602
upperback 0.828746 0.61347 2.23814
thorax -2.69322 0.299711 1.41404
lowerneck -9.8421 -12.83 -14.862
upperneck -0.983735 -16.4772 20.8892
head 4.43968 -7.644 7.40803
rclavicle 5.96354e-015 3.18055e-015
rhumerus -33.4329 16.5513 -87.6938
rradius 69.0363
rwrist 20.6253
rhand -5.83871 18.8745
rfingers 7.12502
rthumb 19.9874 -10.1176
lclavicle 5.96354e-015 3.18055e-015
lhumerus -23.6897 -5.67312 83.8584
lradius 58.3989
lwrist 5.60265
lhand -11.3754 26.0642
lfingers 7.12502
lthumb 14.6588 55.526
rfemur -19.9358 8.18514 17.0256
rtibia 27.626
rfoot -15.1782 -12.0623
rtoes -13.4267
lfemur -22.0869 -9.34188 -17.1916
ltibia 29.2688
lfoot -16.1207 3.44099
ltoes -12.5894
137
root 0.213911 17.1933 -1.06519 9.5543 0.229261 0.251193
lowerback 6.52326 0.197183 1.37241
upperback 0.995759 0.424619 2.29682
thorax -2.63827 0.20722 1.55975
lowerneck -10.1063 -12.6198 -14.5812
upperneck -1.55586 -16.1053 20.9279
head 4.23075 -7.46632 7.42959
rclavicle 1.78906e-015 0
rhumerus -33.1309 16.5249 -87.7349
rradius 67.2971
rwrist 21.6089
rhand -5.85926 18.7063
rfingers 7.12502
rthumb 19.9676 -10.2878
lclavicle 1.78906e-015 0
lhumerus -22.9149 -7.21923 84.9812
lradius 54.1493
lwrist 4.30354
lhand -11.6871 26.2139
lfingers 7.12502
lthumb 14.3585 55.6973
rfemur -20.5675 8.00546 16.8123
rtibia 28.272
rfoot -15.3193 -11.9183
rtoes -13.6364
lfemur -22.5876 -9.09879 -17.3571
ltibia 29.6679
lfoot -16.1819 3.28298
ltoes -13.1774
138
root 0.22275 17.1812 -1.08626 9.74764 0.135584 0.415541
lowerback 6.74713 0.0674995 1.24855
upperback 1.08728 0.248549 2.34573
thorax -2.66655 0.120792 1.69533
lowerneck -10.2065 -12.4444 -14.4363
upperneck -2.07245 -15.7992 21.0276
head 4.04161 -7.32707 7.48831
rclavicle -3.97569e-015 -2.70347e-014
rhumerus -32.8835 16.5794 -87.7893
rradius 65.4386
rwrist 22.7328
rhand -5.53937 18.5112
rfingers 7.12502
rthumb 20.2751 -10.4506
lclavicle -3.97569e-015 -2.70347e-014
lhumerus -22.2081 -9.11896 86.2043
lradius 49.8557
lwrist 3.24847
lhand -12.1229 26.2833
lfingers 7.12502
lthumb 13.9385 55.7961
rfemur -21.2012 7.82406 16.5551
rtibia 28.8739
rfoot -15.4978 -11.7222
rtoes -13.7554
lfemur -23.0679 -8.80863 -17.5765
ltibia 30.0116
lfoot -16.1797 3.10673
ltoes -13.3145
139
root 0.231252 17.1699 -1.10644 9.96595 0.0362507 0.537861
lowerback 6.95807 -0.0589179 1.18153
upperback 1.11961 0.0817461 2.38891
thorax -2.74768 0.0384919 1.79334
lowerneck -10.2561 -12.241 -14.233
upperneck -2.47474 -15.4796 21.0616
head 3.8644 -7.18243 7.51933
rclavicle -1.39149e-015 -2.38542e-014
rhumerus -32.6434 16.6379 -87.8881
rradius 63.4505
rwrist 24.1386
rhand -5.59129 18.5152
rfingers 7.12502
rthumb 20.2252 -10.4518
lclavicle -1.39149e-015 -2.38542e-014
lhumerus -21.572 -10.9033 87.452
lradius 45.5955
lwrist 1.86051
lhand -11.893 26.0943
lfingers 7.12502
lthumb 14.1601 55.5918
rfemur -21.8329 7.63924 16.3502
rtibia 29.404
rfoot -15.6503 -11.5147
rtoes -13.6983
lfemur -23.5486 -8.52931 -17.7442
ltibia 30.3151
lfoot -16.1576 3.00958
ltoes -13.9394
140
root 0.239704 17.1593 -1.12732 10.1479 -0.0291053 0.62026
lowerback 7.20965 -0.200225 1.1869
upperback 1.15113 -0.0986755 2.4203
thorax -2.85142 -0.0512139 1.84103
lowerneck -10.3266 -12.0364 -14.0796
upperneck -2.80001 -15.1661 21.1546
head 3.7253 -7.03573 7.57267
rclavicle -9.34288e-015 -5.56597e-015
rhumerus -32.4135 16.6099 -87.9935
rradius 61.5148
rwrist 25.7027
rhand -5.92641 18.9262
rfingers 7.12502
rthumb 19.9031 -10.0746
lclavicle -9.34288e-015 -5.56597e-015
lhumerus -20.6864 -12.1688 88.5384
lradius 40.9869
lwrist -0.548511
lhand -11.7288 25.3771
lfingers 7.12502
lthumb 14.3183 54.8634
rfemur -22.3803 7.42383 16.2078
rtibia 29.8785
rfoot -15.7661 -11.3242
rtoes -14.1132
lfemur -23.9747 -8.25792 -17.8609
ltibia 30.5771
lfoot -16.2238 2.73928
ltoes -13.6817
141
root 0.247801 17.1505 -1.14924 10.3211 -0.111044 0.705992
lowerback 7.47645 -0.343474 1.19038
upperback 1.17927 -0.281187 2.45014
thorax -2.96681 -0.141854 1.88986
lowerneck -10.3263 -11.8277 -14.0055
upperneck -3.17906 -14.8429 21.3344
head 3.57292 -6.88822 7.67094
rclavicle -1.19271e-015 -7.95139e-015
rhumerus -32.2365 16.7274 -88.0961
rradius 59.8079
rwrist 27.0142
rhand -6.15253 19.4082
rfingers 7.12502
rthumb 19.6857 -9.615
lclavicle -1.19271e-015 -7.95139e-015
lhumerus -19.5747 -13.2096 89.538
lradius 36.0806
lwrist -3.5753
lhand -11.9049 24.2929
lfingers 7.12502
lthumb 14.1487 53.7911
rfemur -22.891 7.28983 16.0506
rtibia 30.2953
rfoot -15.8413 -11.1705
rtoes -14.2902
lfemur -24.3775 -8.04301 -17.9802
ltibia 30.8102
lfoot -16.2224 2.65011
ltoes -14.3303
